/* XPM */
static char * closeI_xpm[] = {
"28 42 3 1",
" 	c #292929",
".	c #248ad8",
"+	c #9e8319",
"                            ",
"                            ",
"                            ",
"                            ",
"                            ",
"       ..    ..             ",
"       ...  ...             ",
"        ......              ",
"         ....               ",
"         ....               ",
"        ......              ",
"       ...  ...             ",
"       ..    ..             ",
"                            ",
"                            ",
"                            ",
"                            ",
"                            ",
"                            ",
"                            ",
"                            ",
"                            ",
"                            ",
"                            ",
"                            ",
"                            ",
"        +    +              ",
"       +++  +++             ",
"        ++++++              ",
"         ++++               ",
"         ++++               ",
"        ++++++              ",
"       +++  +++             ",
"        +    +              ",
"                            ",
"                            ",
"                            ",
"                            ",
"                            ",
"                            ",
"                            ",
"                            "};
