/* XPM */
static char * hideI_xpm[] = {
"20 42 3 1",
" 	c #292929",
".	c #248ad8",
"+	c #9e8319",
"                    ",
"   ......   ......  ",
"   ......   ......  ",
"   ..           ..  ",
"   ..           ..  ",
"   ..           ..  ",
"   ..           ..  ",
"                    ",
"                    ",
"                    ",
"   ..           ..  ",
"   ..           ..  ",
"   ..           ..  ",
"   ..           ..  ",
"   ......   ......  ",
"   ......   ......  ",
"                    ",
"                    ",
"                    ",
"                    ",
"                    ",
"                    ",
"   ++++++   +++++   ",
"   ++++++   +++++   ",
"   ++          ++   ",
"   ++          ++   ",
"   ++          ++   ",
"   ++          ++   ",
"                    ",
"                    ",
"                    ",
"   ++          ++   ",
"   ++          ++   ",
"   ++          ++   ",
"   ++++++   +++++   ",
"   ++++++   +++++   ",
"                    ",
"                    ",
"                    ",
"                    ",
"                    ",
"                    "};

