/* XPM */
static char * menuButtonA_xpm[] = {
"23 42 2 1",
" 	c #292929",
".	c #191919",
"                       ",
"                       ",
"                       ",
"                       ",
"                       ",
"                       ",
"                       ",
"                       ",
"                       ",
"                       ",
"                       ",
"                       ",
"                       ",
"                       ",
"                       ",
"                       ",
"                       ",
"                       ",
"                       ",
"                       ",
"                       ",
"                       ",
"                       ",
"  ................     ",
"  ................     ",
"  ................     ",
"  ................     ",
"  ................     ",
"  ................     ",
"  ................     ",
"  ................     ",
"  ................     ",
"  ................     ",
"  ................     ",
"  ................     ",
"  ................     ",
"  ................     ",
"  ................     ",
"  ................     ",
"                       ",
"                       ",
"                       "};
