/* XPM */
static char * rollupA_xpm[] = {
"20 42 3 1",
" 	c #292929",
".	c #9e8319",
"+	c #248ad8",
"                    ",
"                    ",
"                    ",
"                    ",
"   ..............   ",
"   ..............   ",
"         ..         ",
"        ....        ",
"       ......       ",
"      .. .. ..      ",
"         ..         ",
"         ..         ",
"         ..         ",
"         ..         ",
"                    ",
"                    ",
"                    ",
"                    ",
"                    ",
"                    ",
"                    ",
"                    ",
"                    ",
"                    ",
"                    ",
"   ++++++++++++++   ",
"   ++++++++++++++   ",
"         ++         ",
"        ++++        ",
"       ++++++       ",
"      ++ ++ ++      ",
"         ++         ",
"         ++         ",
"         ++         ",
"         ++         ",
"                    ",
"                    ",
"                    ",
"                    ",
"                    ",
"                    ",
"                    "};

